<svg width="28" height="28" fill="none" xmlns="http://www.w3.org/2000/svg"><path d="M7.655.523a41.511 41.511 0 016.313-.458 41.51 41.51 0 016.313.458c3.725.558 6.65 3.517 7.202 7.285a42.957 42.957 0 010 12.448c-.552 3.768-3.477 6.727-7.202 7.285a41.52 41.52 0 01-6.313.459 41.52 41.52 0 01-6.313-.459c-3.725-.558-6.65-3.517-7.202-7.285a42.958 42.958 0 010-12.448C1.005 4.04 3.93 1.081 7.655.523z" fill="#FF1F1F"/><path d="M23.013 13.997c0 .988-3.64 1.251-3.997 2.114-.368.894 2.01 3.65 1.336 4.323-.673.673-3.43-1.704-4.323-1.336-.863.358-1.126 3.997-2.114 3.997-.99 0-1.252-3.64-2.115-3.997-.894-.368-3.65 2.01-4.323 1.336-.673-.673 1.704-3.43 1.336-4.323-.347-.873-3.987-1.126-3.987-2.114 0-1 3.64-1.252 3.998-2.115.368-.894-2.01-3.65-1.336-4.323.673-.673 3.429 1.704 4.323 1.336.862-.358 1.115-3.997 2.114-3.997.989 0 1.252 3.64 2.114 3.997.894.368 3.65-2.009 4.323-1.336.674.673-1.703 3.43-1.335 4.323.347.863 3.986 1.115 3.986 2.115z" fill="#141414"/></svg>