<svg width="95" height="95" fill="none" xmlns="http://www.w3.org/2000/svg"><g filter="url(#filter0_d_89_92)"><path d="M85.212 38.45c.69 4.178-14.506 7.832-15.415 11.727-.93 4.035 11.04 14.02 8.666 17.336-2.375 3.315-15.682-4.806-19.203-2.625-3.395 2.114-1.964 17.677-6.142 18.368-4.179.69-7.832-14.505-11.727-15.414-4.036-.931-14.021 11.04-17.336 8.665-3.315-2.375 4.805-15.681 2.625-19.202-2.077-3.447-17.633-1.972-18.324-6.15-.698-4.223 14.506-7.832 15.414-11.727.932-4.035-11.04-14.021-8.665-17.336 2.375-3.315 15.681 4.805 19.203 2.625 3.395-2.114 1.92-17.67 6.142-18.368 4.178-.691 7.832 14.505 11.727 15.414 4.035.931 14.02-11.04 17.336-8.665 3.315 2.374-4.806 15.681-2.625 19.202 2.07 3.403 17.626 1.927 18.324 6.15z" fill="#FF1F1F"/></g><path d="M29.907 50.056l4.005-.662c.26 1.571 1.84 2.703 4.18 2.316 2.342-.387 3.344-1.788 3.085-3.359-.285-1.725-1.716-2.722-4.18-2.315l-1.387.23-.586-3.544 1.386-.229c2.342-.387 3.19-1.761 2.93-3.333-.228-1.386-1.454-2.29-3.641-1.93-2.187.362-3.216 1.608-2.956 3.18l-4.005.661c-.59-3.573 1.857-6.953 6.478-7.716 4.282-.708 7.544 1.6 8.13 5.143.285 1.726-.276 2.926-.898 3.757a4.99 4.99 0 01-1.29 1.194l.025.154a5.52 5.52 0 011.77.752c.954.602 1.959 1.702 2.28 3.642.56 3.39-1.883 6.8-6.504 7.563-4.775.79-8.19-1.684-8.822-5.504zm25.597-1.225c2.618-.433 4.547-3.125 3.732-8.054-.815-4.929-3.507-6.857-6.126-6.425-2.618.433-4.547 3.126-3.732 8.055.815 4.929 3.507 6.857 6.126 6.424zm-3.03-18.33c4.929-.814 9.6 2.56 10.767 9.614 1.166 7.055-2.172 11.752-7.1 12.567-4.93.815-9.602-2.559-10.768-9.613-1.166-7.055 2.172-11.753 7.1-12.567zm-13.281-2.63l.887-.147c.062.374.514.731 1.159.625.71-.118.974-.497.92-.824-.062-.374-.426-.602-1.09-.492l-.467.077-.123-.747.467-.077c.56-.093.841-.427.787-.754-.054-.327-.427-.553-1.034-.453-.664.11-.88.482-.819.855l-.934.155c-.131-.794.454-1.61 1.621-1.804 1.215-.2 1.969.299 2.1 1.093a.98.98 0 01-.228.824c-.089.101-.2.187-.313.253l.007.047c.293.029.842.158.967.915.124.747-.422 1.51-1.73 1.725-1.26.209-2.038-.43-2.177-1.27zm8.424.143l-.179-.498-.046.007a1.344 1.344 0 01-.286.364c-.2.187-.53.395-1.015.475-1.028.17-1.78-.32-1.92-1.17-.155-.934.351-1.641 1.66-1.858l1.167-.193-.016-.093c-.1-.607-.535-.919-1.143-.819-.653.108-.872.528-.872.816l-.934.155c-.083-.793.508-1.572 1.675-1.765 1.224-.202 2.03.375 2.209 1.459l.494 2.989-.794.131zm-.465-1.938l-.03-.187-1.122.185c-.71.117-.973.497-.904.917.07.42.397.654.957.562.85-.14 1.23-.684 1.1-1.477zm-10.64 38.6l-.772-4.67 1.541-.255 1.685 3.224.187-.031.557-3.595 1.541-.255.773 4.67-.935.155-.563-3.41-.187.032-.557 3.594-1.028.17-1.684-3.224-.187.03.563 3.41-.934.155zm7.004-1.158l-.773-4.67.934-.155.556 3.363.187-.031 1.032-3.625 1.355-.224.772 4.67-.934.155-.556-3.363-.187.03-1.032 3.626-1.354.224zm5.561-.92l-.772-4.67.934-.154.31 1.868 2.194-.363-.308-1.868.934-.155.772 4.67-.934.155-.317-1.915-2.195.363.316 1.915-.934.155zm5.824.957l-.139-.84.935-.155c.186-.03.26-.225.27-.333l.08-.445-2.74-4.68.98-.163 1.942 3.326.187-.031.627-3.75.981-.162-1.105 6.084c-.102.545-.336.871-1.037.987l-.98.162zm5.9-2.894l-.625-3.784-1.542.255-.146-.887 4.016-.664.147.887-1.541.255.625 3.783-.934.155z" fill="#fff"/><defs><filter id="filter0_d_89_92" x=".938" y="1.595" width="93.289" height="93.34" filterUnits="userSpaceOnUse" color-interpolation-filters="sRGB"><feFlood flood-opacity="0" result="BackgroundImageFix"/><feColorMatrix in="SourceAlpha" values="0 0 0 0 0 0 0 0 0 0 0 0 0 0 0 0 0 0 127 0" result="hardAlpha"/><feOffset dx=".799" dy="3.462"/><feGaussianBlur stdDeviation="4.097"/><feComposite in2="hardAlpha" operator="out"/><feColorMatrix values="0 0 0 0 0 0 0 0 0 0 0 0 0 0 0 0 0 0 0.06 0"/><feBlend in2="BackgroundImageFix" result="effect1_dropShadow_89_92"/><feBlend in="SourceGraphic" in2="effect1_dropShadow_89_92" result="shape"/></filter></defs></svg>