<svg width="19" height="12" xmlns="http://www.w3.org/2000/svg"><path d="M10.126 11.409c.634 0 .634-.913.634-1.268 0-.633.634-1.267 1.268-1.267s1.72 1.087 2.535 1.901c.634.634.634.634 1.268.634h1.901S19 11.361 19 10.141c0-.396-.434-1.068-1.902-2.535-1.267-1.268-1.917-.613 0-3.17 1.169-1.556 2.019-2.966 1.873-3.373-.14-.389-3.389-1.007-3.774-.43-1.268 1.902-1.5 2.368-1.902 3.17-.633 1.268-.696 1.902-1.267 1.902-.576 0-.634-1.23-.634-1.902 0-2.095.304-3.577-.634-3.803h-1.9C7.84 0 6.958.634 6.958.634s-.786.613-.634.634c.19.025 1.268-.263 1.268.634v1.267s.006 2.536-.634 2.536c-.634 0-1.901-2.536-3.17-4.437C3.29.522 3.155.634 2.52.634 1.84.634 1.253.66.62.66c-.634 0-.715.404-.634.608 1.268 3.169 2.178 5.16 4.587 7.667 2.209 2.3 3.684 2.422 4.92 2.474.317.013 0 0 .634 0z" fill="#4D76A3"/></svg>