<svg width="6" height="5" xmlns="http://www.w3.org/2000/svg"><path d="M.248 2.134a.826.826 0 011.205 0l.66.706L4.548.262a.825.825 0 011.206 0c.33.348.33.925 0 1.274L2.71 4.743l-.015.015-.014.015-.014.015-.015.015-.021.015-.015.016-.021.007-.015.016-.021.015-.015.007-.021.015-.014.008-.022.007-.014.008-.022.015-.021.008-.014.007-.022.008-.022.008-.014.007h-.021l-.022.007-.021.008h-.022l-.014.008h-.022L2.215 5h-.202l-.02-.007H1.97l-.021-.008h-.022l-.02-.008-.015-.007H1.87l-.021-.007-.015-.008-.021-.008-.022-.007-.021-.008-.014-.015-.022-.008-.014-.007-.022-.008-.021-.015-.015-.007-.014-.015-.022-.016-.014-.007-.021-.016-.015-.015-.014-.015-.021-.015-.015-.015-.014-.015L.25 3.408a.941.941 0 01-.001-1.274z" fill="#FFF" fill-rule="evenodd"/></svg>