<svg width="16" height="14" xmlns="http://www.w3.org/2000/svg"><path d="M8 13.6c-.5 0-1-.2-1.4-.6L1 7.3C.9 7.2.9 7.1.8 7 0 5.9-.2 4.6.2 3.3.6 1.7 1.9.4 3.6.1c.3-.1.6-.1.9-.1C6.2 0 7.3 1 8 1.9 8.7 1 9.8 0 11.5 0c.3 0 .7 0 1 .1 1.6.4 2.9 1.6 3.3 3.2.4 1.4.2 2.7-.6 3.8 0 .1-.1.2-.2.2L9.4 13c-.4.4-.9.6-1.4.6zM2.5 6L8 11.6 13.5 6c.5-.6.6-1.4.4-2.1-.2-.9-.9-1.6-1.8-1.8-.2-.1-.4-.1-.6-.1C9.8 2 9 4.3 8.9 4.3c-.1.4-.5.7-.9.7s-.8-.3-1-.7C7 4.3 6.3 2 4.5 2c-.2 0-.4 0-.5.1-.9.2-1.7.9-1.9 1.7-.2.8-.1 1.6.4 2.2z" fill-rule="evenodd"/></svg>