<svg width="26" height="26" xmlns="http://www.w3.org/2000/svg"><path d="M18.956 15.58c-.323-.16-1.913-.94-2.21-1.047-.296-.107-.512-.16-.728.161-.215.323-.835 1.048-1.024 1.263-.189.214-.377.241-.7.08-.324-.16-1.366-.5-2.602-1.598-.962-.853-1.61-1.907-1.8-2.23-.188-.322-.02-.496.142-.657.146-.144.324-.376.486-.564.161-.188.215-.322.323-.537.108-.215.054-.403-.027-.564-.08-.16-.728-1.745-.997-2.39-.263-.628-.53-.543-.728-.553-.188-.009-.404-.01-.62-.01-.216 0-.566.08-.862.402-.297.322-1.133 1.101-1.133 2.685 0 1.585 1.16 3.116 1.321 3.33.162.216 2.281 3.467 5.526 4.862.772.331 1.374.53 1.844.678.775.245 1.48.21 2.037.127.622-.092 1.914-.779 2.184-1.53.27-.753.27-1.397.188-1.531-.08-.135-.296-.215-.62-.376m-5.902 8.02h-.004a10.783 10.783 0 01-5.476-1.493l-.393-.232-4.073 1.063 1.087-3.951-.256-.406a10.645 10.645 0 01-1.645-5.698C2.297 6.979 7.124 2.176 13.06 2.176a10.713 10.713 0 017.607 3.14 10.618 10.618 0 013.148 7.576c-.002 5.905-4.83 10.709-10.76 10.709m9.158-19.823A12.893 12.893 0 0013.054 0C5.92 0 .111 5.78.11 12.883a12.808 12.808 0 001.728 6.44L0 26l6.863-1.792a12.984 12.984 0 006.186 1.569h.005c7.135 0 12.943-5.78 12.946-12.884a12.775 12.775 0 00-3.788-9.115" fill="#25D366" fill-rule="evenodd"/></svg>