<svg width="26" height="22" xmlns="http://www.w3.org/2000/svg"><path d="M1.75.59h2.836c.027 0 .05.012.075.015a.716.716 0 01.497.266.723.723 0 01.135.258c.008.027.025.048.03.076l.43 2.347 18.354 1.073c.07-.005.132.005.21.013a.75.75 0 01.669.892l-1.28 6.975c-.292 1.081-1.192 2.173-2.547 2.173H7.789l.286 1.565h11.25a2.587 2.587 0 012.584 2.583 2.587 2.587 0 01-2.584 2.584 2.587 2.587 0 01-2.583-2.584c0-.388.092-.753.246-1.083H10.08c.154.33.246.695.246 1.083a2.587 2.587 0 01-2.583 2.584 2.587 2.587 0 01-2.584-2.584c0-1.013.591-1.882 1.442-2.306L3.961 2.09H1.75a.75.75 0 010-1.5zm5.228 9.655l3.178.05-.173-1.842-3.352-.1.347 1.892zm15.878-1.406l-3.176-.095-.208 1.697 3.081.048.303-1.65zm-4.18-.126l-3.49-.104v1.765l3.28.051.21-1.712zm-3.49-1.105l3.612.108.231-1.885-3.844-.225v2.002zm-1-2.06l-3.49-.204.2 2.135 3.29.099v-2.03zm1 5.826v1.804h2.944l.215-1.754-3.16-.05zm-1-.016l-2.93-.046.175 1.866h2.754v-1.82zm0-1v-1.78l-3.196-.095.172 1.827 3.023.048zm-7.74-3.012l3.442.103-.204-2.164-3.654-.214.416 2.275zM20.03 5.889l-.227 1.857 3.236.097c.136-.74.245-1.316.337-1.758l-3.346-.196zm2.216 6.285l.126-.687-3.021-.048-.213 1.74h2.022c.642 0 1-.697 1.086-1.005zm-11.995-.878l-3.089-.048.354 1.93h2.912l-.177-1.882zm7.992 7.53c0 .598.485 1.084 1.083 1.084a1.085 1.085 0 000-2.167c-.598 0-1.083.486-1.083 1.083zm-10.5 1.084a1.085 1.085 0 000-2.167 1.084 1.084 0 000 2.167z" stroke="#000" stroke-width=".1"/></svg>