<svg width="16" height="12" xmlns="http://www.w3.org/2000/svg"><g fill-rule="evenodd"><path d="M6 0a6 6 0 110 12A6 6 0 016 0zm0 1a5 5 0 100 10A5 5 0 006 1z"/><path d="M9.376 0c-.88 0-1.715.19-2.467.529V1h2.075v.015a5 5 0 110 9.97V11H6.909v.471c.74.334 1.559.522 2.421.529l.09-.001.18-.003A6 6 0 009.377 0z"/><path d="M5.582 9c.878 0 1.488-.108 1.832-.324.503-.315.754-.797.754-1.446 0-.59-.22-1.024-.66-1.3a1.679 1.679 0 00-.612-.242c-.21-.037-.576-.055-1.1-.055h-.39V4.012H7.66v-.793H4.227V9h1.355zm.121-.742h-.297v-1.88h.348c.411 0 .72.076.926.226.205.15.308.374.308.673 0 .328-.107.574-.322.737-.215.162-.536.244-.963.244z" fill-rule="nonzero"/></g></svg>