<svg width="101" height="100" fill="none" xmlns="http://www.w3.org/2000/svg"><g clip-path="url(#clip0_1_2363)"><rect x=".727" width="100" height="100" rx="50" fill="#B8EC24"/><mask id="a" style="mask-type:alpha" maskUnits="userSpaceOnUse" x="-3" y="0" width="104" height="103"><path d="M25.498 1.675A155.987 155.987 0 0148.888 0c7.817-.03 15.636.528 23.39 1.674 13.8 2.038 24.637 12.844 26.682 26.606a154.666 154.666 0 010 45.463c-2.045 13.762-12.882 24.568-26.683 26.607a156.14 156.14 0 01-23.39 1.674 156.14 156.14 0 01-23.389-1.674C11.698 98.312.86 87.506-1.184 73.744a154.677 154.677 0 010-45.463C.86 14.52 11.697 3.713 25.498 1.675z" fill="#FF1F1F"/></mask><g mask="url(#a)"><path d="M36.311 26.433c-1.686.445-2.809 2.014-2.668 3.73L37 71.042c.182 2.218 2.359 3.73 4.54 3.155l47.028-12.422c2.18-.576 3.298-2.959 2.33-4.97L73.069 19.75c-.748-1.555-2.516-2.361-4.203-1.916l-16.277 4.3-16.277 4.299z" fill="url(#paint0_linear_1_2363)"/><path d="M45.361 32.745c-.452-1.662.893-3.254 2.612-3.092l4.528.428a5.638 5.638 0 003.772-.996l3.704-2.602c1.406-.988 3.378-.272 3.83 1.39.272 1-.11 2.06-.956 2.654l-4.02 2.824a9.54 9.54 0 01-6.382 1.685l-4.913-.464a2.497 2.497 0 01-2.175-1.827z" fill="#B8EC24"/><path d="M21.715 28.984c-2.09-1.19-4.742-.737-6.305 1.074l-37.244 43.177c-2.021 2.343-1.394 5.918 1.308 7.456l58.267 33.161c2.702 1.537 6.157.285 7.204-2.611l19.312-53.383c.81-2.24-.119-4.73-2.208-5.92L41.882 40.461 21.715 28.984z" fill="url(#paint1_linear_1_2363)"/><path d="M24.31 43.864c1.206-2.06 4.112-2.312 5.638-.489l3.977 4.752a7.757 7.757 0 004.686 2.666l6.163 1.02c2.365.391 3.596 2.997 2.39 5.057a3.48 3.48 0 01-3.568 1.667l-6.7-1.108a13.149 13.149 0 01-7.943-4.52l-4.324-5.166a3.375 3.375 0 01-.32-3.88z" fill="#B8EC24"/><path d="M31.001 71.857c-2.897 1.649-4.186 5.103-3.062 8.21l26.783 74.036c1.453 4.018 6.245 5.754 9.992 3.622l80.811-45.991c3.747-2.132 4.617-7.091 1.814-10.34L95.685 41.512c-2.168-2.513-5.847-3.14-8.744-1.491L58.97 55.939 31 71.857z" fill="url(#paint2_linear_1_2363)"/><path d="M50.945 79.116c-1.673-2.857.035-6.471 3.315-7.014l8.547-1.414a10.758 10.758 0 006.499-3.698l5.516-6.59c2.117-2.529 6.146-2.18 7.82.678a4.68 4.68 0 01-.443 5.38l-5.997 7.163a18.236 18.236 0 01-11.016 6.27l-9.293 1.537a4.827 4.827 0 01-4.948-2.312z" fill="#B8EC24"/></g></g><defs><linearGradient id="paint0_linear_1_2363" x1="52.588" y1="22.133" x2="64.826" y2="68.466" gradientUnits="userSpaceOnUse"><stop stop-color="#702DFF"/><stop offset="1" stop-color="#702DFF" stop-opacity="0"/></linearGradient><linearGradient id="paint1_linear_1_2363" x1="41.882" y1="40.461" x2="9.041" y2="98.166" gradientUnits="userSpaceOnUse"><stop stop-color="#702DFF"/><stop offset="1" stop-color="#702DFF" stop-opacity="0"/></linearGradient><linearGradient id="paint2_linear_1_2363" x1="58.971" y1="55.939" x2="104.517" y2="135.97" gradientUnits="userSpaceOnUse"><stop stop-color="#702DFF"/><stop offset="1" stop-color="#702DFF" stop-opacity="0"/></linearGradient><clipPath id="clip0_1_2363"><rect x=".727" width="100" height="100" rx="50" fill="#fff"/></clipPath></defs></svg>