<svg height="100" width="100" xmlns="http://www.w3.org/2000/svg" viewBox="0 0 56 56"><path d="M18.367 45.66a1 1 0 00.992-1.14L17.58 31.85a1 1 0 10-1.98.278L17.377 44.8a1 1 0 00.99.86zm6.42 0h.048a1 1 0 00.952-1.046l-.593-12.674a1.01 1.01 0 00-1.046-.952 1 1 0 00-.952 1.046l.593 12.673a1 1 0 00.998.954zm6.374 0h.048a1 1 0 00.998-.953l.593-12.673a1 1 0 00-.952-1.046c-.536-.011-1.02.4-1.046.952l-.593 12.674a1 1 0 00.952 1.046zm6.327-.01a1 1 0 001.13-.851l1.778-12.673a1 1 0 10-1.98-.278L36.637 44.52a1 1 0 00.851 1.13z"/><path d="M49.665 17.874h-9.223L45.706 7.76a1 1 0 00-1.774-.924l-5.746 11.038H17.814L12.068 6.836a1.001 1.001 0 00-1.774.924l5.264 10.114H6.325A2.333 2.333 0 004 20.21v3.938a2.333 2.333 0 002.325 2.335h1.292L12.197 47a3.473 3.473 0 003.366 2.704h24.864A3.436 3.436 0 0043.804 47l4.57-20.517h1.291A2.337 2.337 0 0052 24.147v-3.938a2.337 2.337 0 00-2.335-2.335zm-7.813 28.691a1.448 1.448 0 01-1.425 1.138H15.563a1.46 1.46 0 01-1.415-1.139L9.667 26.482h36.658l-4.473 20.083zM50 24.147a.331.331 0 01-.335.335H6.325A.33.33 0 016 24.147v-3.938a.33.33 0 01.325-.335H16.6l1.69 3.246a1 1 0 001.774-.924l-1.208-2.322h18.29l-1.208 2.322a1 1 0 001.774.924l1.69-3.246h10.264c.188 0 .335.147.335.335v3.938z"/></svg>