<svg width="16" height="15" xmlns="http://www.w3.org/2000/svg"><path d="M12.342 5.873c.49-.196 1.077.098 1.272.587.196.49 0 1.077-.49 1.37L8.819 9.496v3.23h1.958c.587 0 .979.391.979.978 0 .588-.392.98-.98.98H4.904c-.587 0-.979-.392-.979-.98 0-.587.392-.978.979-.978H6.86v-2.447l-3.524 1.37c-.196.098-.294.098-.392.098-.391 0-.783-.196-.979-.685-.195-.49.098-1.077.588-1.273zM6.86 2.936c.391 0 .685.196.88.588.196.391.098.685-.097.979L4.707 8.418c-.196.293-.49.391-.783.391-.294 0-.587-.098-.783-.391L.205 4.503c-.196-.294-.294-.686-.098-.98.195-.293.49-.587.88-.587h5.874zM14.69 0c.392 0 .685.196.881.587.196.294.098.685-.098.98L12.538 5.48c-.196.294-.49.392-.783.392-.294 0-.588-.098-.783-.392L8.035 1.566C7.84 1.272 7.741.881 7.937.49c.196-.392.49-.49.881-.49h5.873z" fill-rule="evenodd"/></svg>