<svg width="26" height="26" xmlns="http://www.w3.org/2000/svg"><defs><linearGradient x1="50%" y1="0%" x2="50%" y2="99.635%" id="a"><stop stop-color="#41BCE7" offset="0%"/><stop stop-color="#22A6DC" offset="100%"/></linearGradient></defs><g fill="none"><circle fill="url(#a)" cx="13" cy="13" r="13"/><path d="M19.327 7.48l-2.32 11.705s-.325.813-1.22.422l-5.357-4.109-1.95-.939-3.28-1.102s-.503-.178-.554-.569c-.05-.39.57-.599.57-.599l13.04-5.114c0-.005 1.071-.477 1.071.305z" fill="#FFF"/><path d="M10.014 19.053s-.157-.015-.35-.63C9.47 17.81 8.48 14.56 8.48 14.56l7.877-5.002s.457-.274.436 0c0 0 .082.05-.162.274-.244.229-6.185 5.571-6.185 5.571" fill="#D2E4F0"/><path d="M12.482 17.073l-2.118 1.934s-.167.127-.345.046l.406-3.59" fill="#B5CFE4"/></g></svg>