<svg width="151" height="152" fill="none" xmlns="http://www.w3.org/2000/svg"><g filter="url(#filter0_d_58_42)"><path d="M136.552 70.312c0 6.772-24.925 8.572-27.374 14.48-2.521 6.123 13.759 24.996 9.149 29.607-4.611 4.61-23.484-11.67-29.608-9.149-5.907 2.449-7.707 27.374-14.479 27.374-6.771 0-8.572-24.925-14.48-27.374-6.123-2.521-24.996 13.759-29.607 9.149-4.61-4.611 11.67-23.484 9.149-29.608C36.925 78.813 12 77.085 12 70.313c0-6.843 24.925-8.572 27.374-14.48 2.521-6.123-13.759-24.996-9.149-29.607 4.61-4.61 23.484 11.67 29.608 9.15C65.74 32.924 67.469 8 74.312 8c6.772 0 8.573 24.925 14.48 27.374 6.123 2.521 24.996-13.759 29.607-9.149 4.61 4.61-11.67 23.484-9.149 29.608 2.377 5.907 27.302 7.636 27.302 14.479z" fill="#FF1F1F"/></g><path d="M46.282 74.231h6.49c0 2.547 2.197 4.743 5.992 4.743 3.794 0 5.74-1.947 5.74-4.493 0-2.796-1.996-4.743-5.99-4.743h-2.247v-5.741h2.247c3.794 0 5.492-1.947 5.492-4.493 0-2.247-1.698-3.994-5.242-3.994-3.545 0-5.492 1.697-5.492 4.243h-6.49c0-5.791 4.743-10.484 12.231-10.484 6.94 0 11.483 4.493 11.483 10.235 0 2.795-1.198 4.543-2.396 5.691-.7.649-1.498 1.198-2.347 1.548v.25c.949.399 1.847.948 2.596 1.647 1.348 1.198 2.646 3.195 2.646 6.34 0 5.492-4.743 10.235-12.231 10.235-7.739 0-12.482-4.793-12.482-10.984zm40.699 4.743c4.243 0 7.988-3.744 7.988-11.732 0-7.988-3.745-11.732-7.988-11.732-4.244 0-7.988 3.744-7.988 11.732 0 7.988 3.744 11.732 7.988 11.732zm0-29.705c7.988 0 14.478 6.54 14.478 17.973s-6.49 17.973-14.478 17.973c-7.988 0-14.478-6.54-14.478-17.973s6.49-17.973 14.478-17.973zm-20.265-7.036h1.438c0 .606.62 1.287 1.666 1.287 1.15 0 1.665-.53 1.665-1.06 0-.605-.515-1.06-1.59-1.06h-.757v-1.21h.757c.908 0 1.438-.454 1.438-.984s-.53-.984-1.513-.984c-1.075 0-1.514.53-1.514 1.135h-1.514c0-1.287 1.135-2.422 3.028-2.422 1.967 0 3.027.984 3.027 2.27 0 .606-.287 1-.575 1.242a2.059 2.059 0 01-.56.318v.076c.454.12 1.287.469 1.287 1.695 0 1.211-1.06 2.27-3.18 2.27-2.043 0-3.103-1.21-3.103-2.573zm13.251 2.423l-.151-.833h-.076a2.144 2.144 0 01-.545.5c-.363.242-.938.484-1.725.484-1.666 0-2.725-.969-2.725-2.347 0-1.513.984-2.497 3.103-2.497h1.892v-.152c0-.984-.605-1.59-1.59-1.59-1.059 0-1.513.606-1.589 1.06h-1.514c.076-1.271 1.212-2.346 3.104-2.346 1.983 0 3.103 1.12 3.103 2.876v4.845h-1.287zm-.227-3.18v-.302h-1.816c-1.15 0-1.666.53-1.666 1.21 0 .682.455 1.136 1.363 1.136 1.377 0 2.12-.757 2.12-2.044zM52.89 99.593v-7.569h2.498l1.816 5.526h.303l1.816-5.526h2.498v7.57h-1.514v-5.526h-.302l-1.817 5.525h-1.665l-1.817-5.525h-.302v5.525H52.89zm11.35 0v-7.569h1.513v5.45h.303l2.573-5.45h2.195v7.57H69.31v-5.45h-.302l-2.574 5.45H64.24zm9.013 0v-7.569h1.514v3.028h3.557v-3.028h1.514v7.57h-1.514V96.49h-3.557v3.103h-1.514zm8.938 3.028v-1.362h1.514c.302 0 .469-.288.514-.455l.243-.681-3.104-8.099h1.59l2.195 5.753h.302l1.968-5.753h1.59l-3.33 9.31c-.303.833-.757 1.287-1.893 1.287h-1.59zm10.061-3.028v-6.13h-2.498v-1.439h6.51v1.439h-2.498v6.13h-1.514z" fill="#fff"/><defs><filter id="filter0_d_58_42" x=".177" y=".436" width="150.753" height="150.825" filterUnits="userSpaceOnUse" color-interpolation-filters="sRGB"><feFlood flood-opacity="0" result="BackgroundImageFix"/><feColorMatrix in="SourceAlpha" values="0 0 0 0 0 0 0 0 0 0 0 0 0 0 0 0 0 0 127 0" result="hardAlpha"/><feOffset dx="1.278" dy="5.536"/><feGaussianBlur stdDeviation="6.55"/><feComposite in2="hardAlpha" operator="out"/><feColorMatrix values="0 0 0 0 0 0 0 0 0 0 0 0 0 0 0 0 0 0 0.06 0"/><feBlend in2="BackgroundImageFix" result="effect1_dropShadow_58_42"/><feBlend in="SourceGraphic" in2="effect1_dropShadow_58_42" result="shape"/></filter></defs></svg>