<svg width="20" height="15" xmlns="http://www.w3.org/2000/svg"><path d="M19.8 4.021s-.196-1.378-.795-1.986c-.76-.796-1.613-.8-2.004-.847C14.202.986 10 .986 10 .986s-4.203 0-7.001.203c-.391.046-1.244.05-2.004.847C.395 2.643.2 4.021.2 4.021S0 5.368 0 6.986v2c0 1.619.2 3.027.2 3.027s.195 1.377.795 1.984c.76.797 1.76.772 2.205.856 1.6.153 6.8.134 6.8.134s4.202.06 7.001-.142c.391-.047 1.244-.051 2.004-.848.599-.606.794-1.984.794-1.984S20 10.605 20 8.987v-2c0-1.619-.2-2.966-.2-2.966zM8.132 10.657V5.324l5.334 2.667-5.334 2.666z" fill="#E42824" opacity=".9"/></svg>