<svg width="47" height="15" fill="none" xmlns="http://www.w3.org/2000/svg"><rect y=".5" width="46.799" height="14" rx="7" fill="#FFE22A"/><path d="M26.799 7.5c0 1.221-.224 2.16-.67 2.816-.447.649-1.064.973-1.853.973-.788 0-1.406-.324-1.853-.973-.446-.656-.67-1.595-.67-2.816 0-.607.056-1.144.168-1.612.119-.475.286-.872.502-1.193.224-.321.489-.565.796-.733a2.211 2.211 0 011.057-.251c.789 0 1.406.328 1.853.984.446.649.67 1.584.67 2.805zm-1.309 0c0-.377-.02-.73-.063-1.057a3.345 3.345 0 00-.209-.848 1.436 1.436 0 00-.366-.576.823.823 0 00-.576-.21.86.86 0 00-.586.21 1.53 1.53 0 00-.377.576c-.09.237-.157.52-.199.848-.035.328-.052.68-.052 1.057 0 .377.017.73.052 1.057.042.328.108.614.199.858.098.238.223.426.377.566.16.14.356.21.586.21.23 0 .422-.07.576-.21.153-.14.275-.328.366-.566a3.5 3.5 0 00.21-.858c.041-.328.062-.68.062-1.057zm-4.64 0c0 1.221-.224 2.16-.67 2.816-.447.649-1.065.973-1.853.973-.789 0-1.406-.324-1.853-.973-.447-.656-.67-1.595-.67-2.816 0-.607.056-1.144.168-1.612.118-.475.286-.872.502-1.193.223-.321.489-.565.796-.733a2.21 2.21 0 011.057-.251c.788 0 1.406.328 1.852.984.447.649.67 1.584.67 2.805zm-1.309 0c0-.377-.02-.73-.063-1.057a3.35 3.35 0 00-.21-.848 1.437 1.437 0 00-.366-.576.823.823 0 00-.575-.21.86.86 0 00-.586.21 1.53 1.53 0 00-.377.576c-.09.237-.157.52-.2.848-.034.328-.051.68-.051 1.057 0 .377.017.73.052 1.057.042.328.108.614.199.858.098.238.223.426.377.566.16.14.355.21.586.21a.82.82 0 00.575-.21c.154-.14.276-.328.367-.566.098-.244.167-.53.21-.858.041-.328.062-.68.062-1.057zm-7.666 3.79c-.188 0-.384-.015-.586-.043a4.8 4.8 0 01-.565-.094 6.126 6.126 0 01-.482-.115 2.151 2.151 0 01-.335-.136l.251-1.078c.147.07.36.15.639.24.28.084.624.126 1.036.126.551 0 .95-.105 1.194-.314.244-.216.366-.502.366-.858 0-.23-.049-.422-.147-.576a.98.98 0 00-.387-.366 1.55 1.55 0 00-.565-.2 3.414 3.414 0 00-.67-.062h-.43V6.788h.524c.16 0 .321-.014.482-.042.167-.035.317-.09.45-.167a1.03 1.03 0 00.324-.325.946.946 0 00.126-.513.907.907 0 00-.095-.429.852.852 0 00-.25-.293.938.938 0 00-.346-.167 1.639 1.639 0 00-.419-.053c-.314 0-.593.05-.837.147-.244.09-.46.195-.65.314l-.46-.942c.098-.063.217-.13.356-.199.14-.07.293-.136.46-.199.175-.063.36-.111.556-.146.195-.042.4-.063.617-.063.405 0 .754.049 1.047.146.293.098.534.238.722.419.195.175.338.384.43.628.097.237.146.499.146.785 0 .335-.094.635-.283.9a1.767 1.767 0 01-.712.607c.377.133.688.353.932.66.251.307.377.701.377 1.183a2.4 2.4 0 01-.168.9c-.111.272-.282.51-.513.712a2.63 2.63 0 01-.879.47c-.349.112-.767.168-1.256.168zM4 7.605h1.863V5.553h1.13v2.052h1.864v1.067H6.994v2.052h-1.13V8.672H4V7.605z" fill="#000"/><path d="M42.211 7.5c0 2.367-1.896 4.286-4.235 4.286-3.176 0-4.235-1.92-4.235-4.286 0-2.367.706-4.286 4.235-4.286 2.34 0 4.235 1.919 4.235 4.286z" fill="#FFE22A"/><path fill-rule="evenodd" clip-rule="evenodd" d="M37.858 3.333H33.74c-2.274 0-4.118 1.866-4.118 4.167 0 2.301 1.844 4.167 4.118 4.167h4.118c2.274 0 4.117-1.866 4.117-4.167 0-2.301-1.843-4.167-4.117-4.167zM33.74 2.5c-2.729 0-4.941 2.239-4.941 5s2.212 5 4.94 5h4.119c2.729 0 4.94-2.239 4.94-5s-2.212-5-4.94-5H33.74z" fill="#000"/><path fill-rule="evenodd" clip-rule="evenodd" d="M35.999 3.362h-2.4c-2.194 0-3.972 1.853-3.972 4.138s1.778 4.138 3.972 4.138h2.4c2.194 0 3.973-1.853 3.973-4.138s-1.78-4.138-3.973-4.138zm-2.4-.862c-2.651 0-4.8 2.239-4.8 5s2.149 5 4.8 5h2.4c2.651 0 4.8-2.239 4.8-5s-2.149-5-4.8-5h-2.4z" fill="#000"/><path d="M38.681 7.5c0 2.761-2.212 5-4.941 5-2.729 0-4.941-2.239-4.941-5s2.212-5 4.94-5c2.73 0 4.942 2.239 4.942 5z" fill="#FFE22A"/><path fill-rule="evenodd" clip-rule="evenodd" d="M33.74 11.667c2.274 0 4.118-1.866 4.118-4.167 0-2.301-1.844-4.167-4.118-4.167S29.622 5.2 29.622 7.5c0 2.301 1.844 4.167 4.118 4.167zm0 .833c2.729 0 4.941-2.239 4.941-5s-2.212-5-4.941-5c-2.729 0-4.941 2.239-4.941 5s2.212 5 4.94 5z" fill="#000"/><path d="M32.794 5.605V6.7h.504c.37 0 .701.03.993.09.291.06.538.157.74.292.203.13.357.303.46.518.11.21.163.467.163.772 0 .565-.202.988-.607 1.268-.4.275-.974.412-1.72.412a7.45 7.45 0 01-.704-.037 4.804 4.804 0 01-.741-.113v-5.1h3.29v.803h-2.378zm.326 3.63h.185c.07 0 .146-.003.23-.008.153-.005.299-.022.437-.052a1.12 1.12 0 00.37-.143.686.686 0 00.253-.255.75.75 0 00.096-.397.9.9 0 00-.096-.443.67.67 0 00-.282-.27 1.275 1.275 0 00-.452-.142 3.484 3.484 0 00-.593-.045h-.474v1.74l.14.015h.186z" fill="#000"/></svg>